<?xml version="1.0" encoding="UTF-8"?>
<svg xmlns="http://www.w3.org/2000/svg" id="Layer_2" data-name="Layer 2" viewBox="0 0 254.34 181.63">
  <defs>
    <style>
      .cls-1 {
        fill: #606060;
      }

      .cls-1, .cls-2, .cls-3, .cls-4, .cls-5, .cls-6, .cls-7, .cls-8, .cls-9, .cls-10, .cls-11, .cls-12, .cls-13, .cls-14, .cls-15 {
        stroke-width: 0px;
      }

      .cls-2 {
        fill: #6e6e6e;
      }

      .cls-3 {
        fill: #7d7d7d;
      }

      .cls-4, .cls-16 {
        fill: #7a3307;
      }

      .cls-17 {
        opacity: .5;
      }

      .cls-5 {
        fill: #b7b7b7;
      }

      .cls-6 {
        fill: none;
      }

      .cls-7 {
        fill: #fff;
      }

      .cls-8 {
        fill: #d4d4d4;
      }

      .cls-9 {
        fill: #e2e2e2;
      }

      .cls-16 {
        font-family: Arial-BoldMT, Arial;
        font-size: 36px;
        font-weight: 700;
      }

      .cls-10 {
        fill: #a8a8a8;
      }

      .cls-11 {
        fill: #9a9a9a;
      }

      .cls-12 {
        fill: #f1f1f1;
      }

      .cls-13 {
        fill: #c5c5c5;
      }

      .cls-14 {
        fill: #8b8b8b;
      }

      .cls-15 {
        fill: #471b02;
      }
    </style>
  </defs>
  <g id="Layer_1-2" data-name="Layer 1">
    <g>
      <g>
        <g>
          <path class="cls-7" d="m211.38,40.29c-11.72-12.6-28.61-20.72-51.52-24.74-.48-1.03-1.14-2.08-2.02-3.09-2.99-3.42-7.46-5.17-13.27-5.19h-.18c-6.38,0-11.1,1.76-14,5.21-.19.23-.37.45-.53.68-2.39.09-4.73.25-6.98.49-17.24,1.84-31.24,8.02-41.61,18.37-11.93,11.92-18.69,29.11-20.1,51.13-2.23,1.79-5.54,4.55-8.89,7.76-8.88,8.51-13.17,15.33-13.52,21.47-.22,3.85,1.19,7.38,3.95,9.96,6.35,5.94,26.07,13.11,50.09,14.71,3.09.21,6.24.32,9.35.33.23,0,.45,0,.69,0,18.66,0,46.34-3.56,74.5-19.99.59.04,1.19.06,1.82.06.05,0,.1,0,.16,0,14.41,0,40.87-9.18,49.82-17.3,1.63-1.49,2.48-3.6,2.32-5.81-1.75-24.06-8.13-41.24-20.06-54.07Z"></path>
          <path class="cls-12" d="m210.72,39.63c-11.72-12.6-28.61-20.72-51.52-24.74-.48-1.03-1.14-2.08-2.02-3.09-2.99-3.42-7.46-5.17-13.27-5.19h-.18c-6.38,0-11.1,1.76-14,5.21-.19.23-.37.45-.53.68-2.39.09-4.73.25-6.98.49-17.24,1.84-31.24,8.02-41.61,18.37-11.93,11.92-18.69,29.11-20.1,51.13-2.23,1.79-5.54,4.55-8.89,7.76-8.88,8.51-13.17,15.33-13.52,21.47-.22,3.85,1.19,7.38,3.95,9.96,6.35,5.94,26.07,13.11,50.09,14.71,3.09.21,6.24.32,9.35.33.23,0,.45,0,.68,0,18.66,0,46.34-3.56,74.5-19.99.59.04,1.19.06,1.82.06h.16c14.41,0,40.87-9.18,49.82-17.3,1.63-1.48,2.48-3.6,2.32-5.81-1.75-24.06-8.13-41.24-20.06-54.07Z"></path>
          <path class="cls-9" d="m210.06,38.97c-11.72-12.6-28.61-20.72-51.52-24.74-.48-1.03-1.14-2.08-2.02-3.09-2.99-3.42-7.46-5.17-13.27-5.19h-.18c-6.38,0-11.1,1.76-14,5.21-.19.23-.37.45-.53.68-2.39.09-4.73.25-6.98.49-17.24,1.84-31.24,8.02-41.61,18.37-11.93,11.92-18.69,29.11-20.1,51.13-2.23,1.79-5.54,4.55-8.89,7.76-8.88,8.51-13.17,15.33-13.52,21.47-.22,3.85,1.19,7.38,3.95,9.96,6.35,5.94,26.07,13.11,50.09,14.71,3.09.21,6.24.32,9.35.33.23,0,.46,0,.69,0,18.66,0,46.34-3.56,74.5-19.99.59.04,1.19.06,1.82.06.05,0,.1,0,.16,0,14.41,0,40.87-9.18,49.82-17.3,1.63-1.49,2.48-3.6,2.32-5.81-1.75-24.06-8.13-41.24-20.06-54.07Z"></path>
          <path class="cls-8" d="m209.4,38.31c-11.72-12.6-28.61-20.72-51.52-24.74-.48-1.03-1.14-2.08-2.02-3.09-2.99-3.42-7.46-5.17-13.27-5.19h-.18c-6.38,0-11.1,1.76-14,5.21-.19.23-.37.45-.53.68-2.39.09-4.73.25-6.98.49-17.24,1.84-31.24,8.02-41.61,18.37-11.93,11.92-18.69,29.11-20.1,51.13-2.23,1.79-5.54,4.55-8.89,7.76-8.88,8.51-13.17,15.33-13.52,21.47-.22,3.85,1.19,7.38,3.95,9.96,6.35,5.94,26.07,13.11,50.09,14.71,3.09.21,6.24.32,9.35.33.23,0,.45,0,.69,0,18.66,0,46.34-3.56,74.5-19.99.59.04,1.19.06,1.82.06.05,0,.1,0,.16,0,14.41,0,40.87-9.18,49.82-17.3,1.63-1.48,2.48-3.6,2.32-5.81-1.75-24.06-8.13-41.24-20.06-54.06Z"></path>
          <path class="cls-13" d="m208.74,37.65c-11.72-12.6-28.61-20.72-51.52-24.74-.48-1.03-1.14-2.08-2.02-3.09-2.99-3.42-7.46-5.17-13.27-5.19h-.18c-6.38,0-11.1,1.76-14,5.21-.19.23-.37.45-.53.68-2.39.09-4.73.25-6.98.49-17.24,1.84-31.24,8.02-41.61,18.37-11.93,11.92-18.69,29.11-20.1,51.13-2.23,1.79-5.54,4.55-8.89,7.76-8.88,8.51-13.17,15.33-13.52,21.47-.22,3.85,1.19,7.38,3.95,9.96,6.35,5.94,26.07,13.11,50.09,14.71,3.09.21,6.24.32,9.35.33.23,0,.45,0,.69,0,18.66,0,46.34-3.56,74.5-19.99.59.04,1.19.06,1.82.06.05,0,.1,0,.16,0,14.41,0,40.87-9.18,49.82-17.3,1.63-1.49,2.48-3.6,2.32-5.81-1.75-24.06-8.13-41.24-20.06-54.07Z"></path>
          <path class="cls-5" d="m208.08,36.99c-11.72-12.6-28.61-20.72-51.52-24.74-.48-1.03-1.14-2.08-2.02-3.09-2.99-3.42-7.46-5.17-13.27-5.19h-.18c-6.38,0-11.1,1.76-14,5.21-.19.23-.37.45-.53.68-2.39.09-4.73.25-6.98.49-17.24,1.84-31.24,8.02-41.61,18.37-11.93,11.92-18.69,29.11-20.1,51.13-2.23,1.79-5.54,4.55-8.89,7.76-8.88,8.51-13.17,15.33-13.52,21.47-.22,3.85,1.19,7.38,3.95,9.97,6.35,5.94,26.07,13.11,50.09,14.71,3.09.21,6.24.32,9.35.33.23,0,.45,0,.68,0,18.66,0,46.34-3.56,74.5-19.99.59.04,1.19.06,1.82.06.05,0,.1,0,.16,0,14.41,0,40.87-9.18,49.82-17.3,1.63-1.48,2.48-3.6,2.32-5.81-1.75-24.06-8.13-41.24-20.06-54.07Z"></path>
          <path class="cls-10" d="m207.41,36.33c-11.72-12.6-28.61-20.72-51.52-24.74-.48-1.03-1.14-2.08-2.02-3.09-2.99-3.42-7.46-5.17-13.27-5.19h-.18c-6.38,0-11.1,1.76-14,5.21-.19.23-.37.45-.53.68-2.39.09-4.73.25-6.98.49-17.24,1.84-31.24,8.02-41.61,18.37-11.93,11.92-18.69,29.11-20.1,51.13-2.23,1.79-5.54,4.55-8.89,7.76-8.88,8.51-13.17,15.33-13.52,21.47-.22,3.85,1.19,7.38,3.95,9.96,6.35,5.94,26.07,13.11,50.09,14.71,3.09.21,6.24.32,9.35.33.23,0,.45,0,.69,0,18.66,0,46.34-3.56,74.5-19.99.59.04,1.19.06,1.82.06.05,0,.1,0,.16,0,14.41,0,40.87-9.18,49.82-17.3,1.63-1.48,2.48-3.6,2.32-5.81-1.75-24.06-8.13-41.24-20.06-54.07Z"></path>
          <path class="cls-11" d="m206.75,35.67c-11.72-12.6-28.61-20.72-51.52-24.74-.48-1.03-1.14-2.08-2.02-3.09-2.99-3.42-7.46-5.17-13.27-5.19h-.18c-6.38,0-11.1,1.76-14,5.21-.19.23-.37.45-.53.68-2.39.09-4.73.25-6.98.49-17.24,1.84-31.24,8.02-41.61,18.37-11.93,11.92-18.69,29.11-20.1,51.13-2.23,1.79-5.54,4.55-8.89,7.76-8.88,8.51-13.17,15.33-13.52,21.47-.22,3.85,1.19,7.38,3.95,9.96,6.35,5.94,26.07,13.11,50.09,14.71,3.09.21,6.24.32,9.35.33.23,0,.45,0,.68,0,18.66,0,46.34-3.56,74.5-19.99.59.04,1.19.06,1.82.06.05,0,.1,0,.16,0,14.41,0,40.87-9.18,49.82-17.3,1.63-1.48,2.48-3.6,2.32-5.81-1.75-24.06-8.13-41.24-20.06-54.07Z"></path>
          <path class="cls-14" d="m206.09,35.01c-11.72-12.6-28.61-20.72-51.52-24.74-.48-1.03-1.14-2.08-2.02-3.09-2.99-3.42-7.46-5.17-13.27-5.19h-.18c-6.38,0-11.1,1.76-14,5.21-.19.23-.37.45-.53.68-2.39.09-4.73.25-6.98.49-17.24,1.84-31.24,8.02-41.61,18.37-11.93,11.92-18.69,29.11-20.1,51.13-2.23,1.79-5.54,4.55-8.89,7.76-8.88,8.51-13.17,15.33-13.52,21.47-.22,3.85,1.19,7.38,3.95,9.96,6.35,5.94,26.07,13.11,50.09,14.71,3.09.21,6.24.32,9.35.33.23,0,.45,0,.69,0,18.66,0,46.34-3.56,74.5-19.99.59.04,1.19.06,1.82.06h.16c14.41,0,40.87-9.18,49.82-17.3,1.63-1.49,2.48-3.6,2.32-5.81-1.75-24.06-8.13-41.24-20.06-54.07Z"></path>
          <path class="cls-3" d="m205.43,34.35c-11.72-12.6-28.61-20.72-51.52-24.74-.48-1.03-1.14-2.08-2.02-3.09-2.99-3.42-7.46-5.17-13.27-5.19h-.18c-6.38,0-11.1,1.76-14,5.21-.19.23-.37.45-.53.68-2.39.09-4.73.25-6.98.49-17.24,1.84-31.24,8.02-41.61,18.37-11.93,11.92-18.69,29.11-20.1,51.13-2.23,1.79-5.54,4.55-8.89,7.76-8.88,8.51-13.17,15.33-13.52,21.47-.22,3.85,1.19,7.38,3.95,9.96,6.35,5.94,26.07,13.11,50.09,14.71,3.09.21,6.24.32,9.35.33.23,0,.45,0,.69,0,18.66,0,46.34-3.56,74.5-19.99.59.04,1.19.06,1.82.06h.16c14.41,0,40.87-9.18,49.82-17.3,1.63-1.48,2.48-3.6,2.32-5.81-1.75-24.06-8.13-41.24-20.06-54.06Z"></path>
          <path class="cls-2" d="m204.77,33.69c-11.72-12.6-28.61-20.72-51.52-24.74-.48-1.03-1.14-2.08-2.02-3.09-2.99-3.42-7.46-5.17-13.27-5.19h-.18c-6.38,0-11.1,1.76-14,5.21-.19.23-.37.45-.53.68-2.39.09-4.73.25-6.98.49-17.24,1.84-31.24,8.02-41.61,18.37-11.93,11.92-18.69,29.11-20.1,51.13-2.23,1.79-5.54,4.55-8.89,7.76-8.88,8.51-13.17,15.33-13.52,21.47-.22,3.85,1.19,7.38,3.95,9.97,6.35,5.94,26.07,13.11,50.09,14.71,3.09.21,6.24.32,9.35.33.23,0,.45,0,.69,0,18.66,0,46.34-3.56,74.5-19.99.59.04,1.19.06,1.82.06h.16c14.41,0,40.87-9.18,49.82-17.3,1.63-1.49,2.48-3.6,2.32-5.81-1.75-24.06-8.13-41.24-20.06-54.07Z"></path>
          <path class="cls-1" d="m204.11,33.02c-11.72-12.6-28.61-20.72-51.52-24.74-.48-1.03-1.14-2.08-2.02-3.09C147.58,1.78,143.11.03,137.3,0h-.18c-6.38,0-11.1,1.76-14,5.21-.19.23-.37.45-.53.68-2.39.09-4.73.25-6.98.49-17.24,1.84-31.24,8.02-41.61,18.37-11.93,11.92-18.69,29.11-20.1,51.13-2.23,1.79-5.54,4.55-8.89,7.76-8.88,8.51-13.17,15.33-13.52,21.47-.22,3.85,1.19,7.38,3.95,9.96,6.35,5.94,26.07,13.11,50.09,14.71,3.09.21,6.24.32,9.35.33.23,0,.45,0,.68,0,18.66,0,46.34-3.56,74.5-19.99.59.04,1.19.06,1.82.06.05,0,.1,0,.16,0,14.41,0,40.87-9.18,49.82-17.3,1.63-1.48,2.48-3.6,2.32-5.81-1.75-24.06-8.13-41.24-20.06-54.07Z"></path>
        </g>
        <path class="cls-7" d="m204.11,33.02c-11.72-12.6-28.61-20.72-51.52-24.74-.48-1.03-1.14-2.08-2.02-3.09C147.58,1.78,143.11.03,137.3,0h-.18c-6.38,0-11.1,1.76-14,5.21-.19.23-.37.45-.53.68-2.39.09-4.73.25-6.98.49-17.24,1.84-31.24,8.02-41.61,18.37-11.93,11.92-18.69,29.11-20.1,51.13-2.23,1.79-5.54,4.55-8.89,7.76-8.88,8.51-13.17,15.33-13.52,21.47-.22,3.85,1.19,7.38,3.95,9.96,6.35,5.94,26.07,13.11,50.09,14.71,3.09.21,6.24.32,9.35.33.23,0,.45,0,.68,0,18.66,0,46.34-3.56,74.5-19.99.59.04,1.19.06,1.82.06.05,0,.1,0,.16,0,14.41,0,40.87-9.18,49.82-17.3,1.63-1.48,2.48-3.6,2.32-5.81-1.75-24.06-8.13-41.24-20.06-54.07Z"></path>
        <g>
          <g>
            <path class="cls-4" d="m109.38,76.23c-36.85-6.44-48.52,3.28-48.52,3.28,0,0-29.54,21.94-20.55,30.34,8.99,8.41,70.12,28.09,128.15-7.09-4.21-11.9-22.23-20.09-59.08-26.54Z"></path>
            <path class="cls-15" d="m94.91,123.17c-3.15-.01-6.13-.13-8.92-.32-23.54-1.57-41.25-8.59-45.8-12.85-1.27-1.18-1.85-2.69-1.75-4.49.23-4.16,4.07-9.82,11.39-16.84,5.44-5.21,10.87-9.26,10.93-9.3.11-.09,12.15-9.71,48.67-3.32,36.71,6.42,54.98,14.64,59.23,26.66.03.09,0,.18-.08.23-26.96,16.35-53.7,20.33-73.66,20.24Zm-8.09-48.94c-6.76-.03-11.83.63-15.43,1.4-7.41,1.6-10.37,4.01-10.4,4.03-.22.17-21.63,16.17-22.17,25.87-.09,1.68.45,3.09,1.63,4.19,4.51,4.22,22.12,11.19,45.57,12.75,20.36,1.36,51.13-.98,82.22-19.78-4.3-11.79-22.48-19.9-58.88-26.27-8.99-1.57-16.44-2.16-22.53-2.19Z"></path>
          </g>
          <g>
            <g>
              <path class="cls-4" d="m130.75,14.11c-4.8-.78-9.69-.89-14.39-.62-27.35,2.91-53.65,18.59-55.5,66.02,0,0,11.67-9.73,48.52-3.28,36.85,6.45,54.88,14.64,59.08,26.54,0,0-2.86-31.29-5.29-49.37-2.42-18.07-11.62-35.93-32.43-39.29Z"></path>
              <path class="cls-15" d="m168.46,102.96c-.08,0-.15-.05-.18-.13-4.2-11.87-22.38-20.02-58.94-26.41-18.97-3.32-31.11-2.26-37.96-.79-7.41,1.6-10.37,4.01-10.4,4.03-.06.05-.14.06-.21.02-.07-.03-.11-.1-.11-.18.85-21.83,6.99-38.59,18.24-49.83,9.21-9.2,21.8-14.71,37.43-16.37,5.17-.3,10.03-.09,14.44.62,9.69,1.56,17.51,6.34,23.23,14.2,4.79,6.57,8.02,15.3,9.36,25.25,2.4,17.87,5.26,49.06,5.29,49.37,0,.1-.06.18-.15.21-.01,0-.03,0-.04,0Zm-81.51-29.1c6.16.03,13.58.64,22.45,2.19,35.44,6.2,53.69,14.08,58.74,25.42-.57-6.14-3.05-32.28-5.16-48.04-1.32-9.88-4.54-18.56-9.29-25.08-5.66-7.78-13.4-12.5-22.99-14.05h0c-4.38-.71-9.21-.92-14.34-.62-15.53,1.65-28.04,7.13-37.19,16.26-11.12,11.1-17.21,27.65-18.12,49.18,1.58-1.07,8.97-5.36,25.89-5.28Z"></path>
            </g>
            <g>
              <path class="cls-4" d="m217.04,87.61c-2.83-38.82-18.41-69-81.61-74.31-6.22-.47-12.67-.49-19.07.2,4.69-.27,9.59-.16,14.39.62,20.81,3.36,30.01,21.22,32.43,39.29,2.42,18.08,5.29,49.37,5.29,49.37,11.36,2.06,40.51-7.84,48.58-15.16Z"></path>
              <path class="cls-15" d="m171.91,103.24c-1.28,0-2.45-.1-3.48-.28-.08-.02-.15-.09-.16-.17-.03-.31-2.89-31.49-5.29-49.36-1.32-9.88-4.54-18.56-9.29-25.08-5.66-7.78-13.4-12.5-22.99-14.05-4.38-.71-9.21-.92-14.34-.62-.11,0-.19-.07-.2-.18,0-.1.07-.2.17-.21,5.99-.64,12.42-.71,19.11-.2,29.67,2.49,50.46,10.56,63.57,24.65,10.8,11.61,16.58,27.44,18.22,49.83,0,.06-.02.12-.06.16-7.46,6.77-32.2,15.55-45.26,15.49Zm-3.27-.63c11.23,1.91,40.19-7.9,48.2-15.08-1.63-22.25-7.39-37.99-18.11-49.51-13.04-14.02-33.75-22.05-63.32-24.53-4.17-.32-8.25-.41-12.18-.28,2.63.09,5.15.33,7.53.71,9.69,1.56,17.51,6.34,23.23,14.2,4.79,6.57,8.02,15.3,9.36,25.25,2.31,17.24,5.06,46.88,5.28,49.23Z"></path>
            </g>
          </g>
          <g>
            <path class="cls-4" d="m127.57,12.98s-1-5.82,9.56-5.83c10.56,0,9.55,7.41,9.55,7.41,0,0-12.09-1.88-19.11-1.57Z"></path>
            <path class="cls-15" d="m146.68,14.75s-.02,0-.03,0c-.12-.02-12.16-1.88-19.07-1.57-.12,0-.18-.06-.2-.16-.01-.07-.28-1.73,1.06-3.32,1.53-1.82,4.45-2.74,8.69-2.74.04,0,.08,0,.12,0,3.74.02,6.46.96,8.08,2.82,1.88,2.15,1.56,4.7,1.54,4.81,0,.05-.03.1-.08.13-.03.03-.07.04-.11.04Zm-17.22-1.99c6.5.03,15.58,1.36,17.05,1.58.03-.62,0-2.63-1.47-4.31-1.54-1.76-4.16-2.66-7.79-2.68-.04,0-.08,0-.12,0-4.12,0-6.94.88-8.4,2.6-.99,1.17-1.01,2.4-.99,2.84.54-.02,1.12-.03,1.72-.03Z"></path>
          </g>
          <g class="cls-17">
            <path class="cls-4" d="m137.73,10.48c-1.65-.32-3.28-.97-4.02-2.6-.07-.14-.11-.3-.16-.45-6.72,1.16-5.98,5.55-5.98,5.55,7.02-.31,19.11,1.57,19.11,1.57,0,0,.18-1.38-.45-2.95-2.87-.18-5.73-.59-8.5-1.13Z"></path>
          </g>
          <g>
            <path class="cls-15" d="m74.41,75.27c-.27,0-.49-.21-.5-.48-.02-.53-1.63-52.82,52.67-61.87.27-.04.53.14.58.41.05.27-.14.53-.41.58-27.93,4.66-40.53,20.95-46.19,33.79-6.13,13.94-5.66,26.92-5.65,27.05.01.28-.2.51-.48.52,0,0-.02,0-.02,0Z"></path>
            <path class="cls-15" d="m95.72,74.94s-.02,0-.03,0c-.28-.02-.49-.25-.47-.53.01-.27,1.7-27.48,12.4-43.84,6.76-10.32,20.42-17.52,20.56-17.59.24-.13.55-.03.68.21.13.25.03.55-.21.68-.13.07-13.57,7.15-20.18,17.25-10.56,16.13-12.22,43.07-12.24,43.34-.01.27-.24.48-.5.47Z"></path>
            <path class="cls-15" d="m117.89,78.11s-.07,0-.11-.01c-.27-.06-.44-.33-.38-.6.13-.56,12.66-56.42,12.84-63.39,0-.28.24-.46.52-.49.28,0,.5.24.49.52-.18,7.07-12.34,61.28-12.86,63.59-.05.23-.26.39-.49.39Z"></path>
            <path class="cls-15" d="m129.71,81.37s-.06,0-.09,0c-.27-.05-.45-.31-.4-.58.04-.22,4.06-22.51,5.88-41.1,1.8-18.39-.98-24.65-1-24.71-.12-.25,0-.55.24-.67.25-.12.55,0,.66.24.12.26,2.93,6.48,1.1,25.23-1.82,18.63-5.85,40.96-5.89,41.18-.05.24-.26.41-.49.41Z"></path>
            <path class="cls-15" d="m141.2,84.66s-.07,0-.11-.01c-.27-.06-.44-.33-.37-.6.03-.14,3.33-14.48,4.16-34.76.83-20.17-5.88-32.47-5.95-32.59-.13-.24-.05-.55.19-.68.24-.14.55-.05.68.19.07.12,6.92,12.65,6.08,33.13-.84,20.38-4.16,34.8-4.19,34.95-.05.23-.26.39-.49.39Z"></path>
            <path class="cls-15" d="m154.73,89.49s-.05,0-.08,0c-.27-.04-.46-.3-.42-.57,8.38-52.92-9.3-68.81-9.48-68.96-.21-.18-.23-.5-.05-.71.18-.21.49-.23.71-.05.75.64,18.3,16.32,9.82,69.88-.04.25-.25.42-.5.42Z"></path>
          </g>
          <g class="cls-17">
            <path class="cls-4" d="m109.38,76.23c-36.85-6.44-48.52,3.28-48.52,3.28,0,0-5.84,4.34-11.54,9.9,6.27-4.14,26.07-14.76,56.89-8.57,37.81,7.6,14.67,37.17-18.35,35.9-31.83-1.22-49.49-7.55-46.34-18.29-2.95,4.42-4.16,8.64-1.21,11.4,8.99,8.41,70.12,28.09,128.15-7.09-4.21-11.89-22.23-20.09-59.08-26.54Z"></path>
          </g>
          <g>
            <path class="cls-6" d="m109.38,76.23c.17.03.32.06.48.09-.31-.06-.48-.09-.48-.09Z"></path>
            <g class="cls-17">
              <path class="cls-4" d="m168.46,102.77c-4.19-11.84-22.09-20.02-58.6-26.45,4.5.85,39.25,7.85,37.96,21.95-1.37,15.08-36.55,29.48-90.34,19.34-.24-.04-.44-.08-.68-.12,23.92,7.28,68.63,11.36,111.66-14.73Z"></path>
            </g>
          </g>
          <g>
            <path class="cls-4" d="m109.06,115.22c-12.74,1.28-25.26,1.18-37.91-.77-9.09-1.4-25.64-4.22-29.7-14.01-.08-.19-.39.17-.36.31,1.89,9.03,15.42,12.04,23,13.79,14.61,3.37,29.74,4.15,44.57,1.94.49-.07,1.12-1.32.4-1.25Z"></path>
            <path class="cls-4" d="m115.65,114.54c-.68.13-1.36.22-2.03.4-.38.1-.74,1-.18.81.69-.23,1.4-.33,2.07-.61.18-.07.48-.67.13-.6Z"></path>
          </g>
          <g class="cls-17">
            <path class="cls-4" d="m178.89,73.8c-2.91-41.95-19.16-45.53-8.06-46.95,10.51-1.35,25.88,9.86,28.5,11.56-12.11-13.33-31.89-22.41-63.89-25.1-6.22-.47-12.67-.49-19.07.2,4.69-.27,9.59-.16,14.39.62,20.81,3.36,30.01,21.22,32.43,39.29,2.42,18.08,5.29,49.37,5.29,49.37,11.36,2.06,40.51-7.84,48.58-15.16-.04-.62-.1-1.22-.15-1.84-26.85,15.79-37.06,1.58-38-11.97Z"></path>
          </g>
          <g class="cls-17">
            <path class="cls-4" d="m171.83,67.9c-6.18-43.56-22.23-45.76-17.77-48.45,4.46-2.69,23.2,3.79,23.2,3.79,0,0,.15-.05.4-.14-10.93-4.93-24.74-8.32-42.22-9.79-6.22-.47-12.67-.49-19.07.2,4.69-.27,9.59-.16,14.39.62,20.81,3.36,30.01,21.22,32.43,39.29,2.42,18.08,5.29,49.37,5.29,49.37,7.08,1.28,21.07-2.08,32.56-6.56-1.21.23-2.52.56-3.98,1.02-20.54,6.48-22.8-5.33-25.21-29.33Z"></path>
          </g>
          <g class="cls-17">
            <path class="cls-4" d="m163.18,53.4c-2.42-18.07-11.62-35.93-32.43-39.29-4.8-.78-9.69-.89-14.39-.62-18.3,1.95-36.11,9.63-46.46,28.7h.02s14.3-20.28,30.22-23.18c5.31-1.04-17.42,6.28-22.85,34.67,13.26-23.48,24.96-30.21,30.9-31.24,5.94-1.03-5.97,6.12-10.12,32.61,7.71-15.66,16.47-29.83,23.05-31.7,6.58-1.88,2,25.25-.18,38.6,6.92-27.75,9.71-35.8,12.25-35.15,2.54.65-1.25,40.08-1.03,39.44.21-.64,3.99-36.67,7.59-36.44,3.6.23,4.1,29.92,3.64,38.62,4.57-24.37,2.5-36.04,6.1-34.12,3.6,1.93,8.17,21.67,3.83,43.07-2.38,10.8-11.06,6.1-10.39-.9-4.47,3.8-11.05,4.4-11.43-4.51-5.55,7.82-12.11,5.03-11.86-3.24-6.19,8.24-22.72,6.26-23.32-3.08-8.52,8.87-20.81,5.84-20.98-2.64-4.72,11.22-12.34,9.49-11.66-1.75.06-.91.01-1.69-.07-2.42-1.49,6.11-2.45,12.97-2.75,20.68,0,0,11.67-9.73,48.52-3.28,36.85,6.45,54.88,14.64,59.08,26.54,0,0-2.86-31.29-5.29-49.37Z"></path>
          </g>
          <g>
            <path class="cls-4" d="m90.59,22.5c-16.19,9.06-25.89,26.15-27.14,44.5-.06.91,1.07,0,1.13-.52,2.24-18.3,10.57-33.23,26.01-43.59.12-.08.24-.51,0-.38Z"></path>
            <path class="cls-4" d="m63.86,70.23c-.13-.49-.83.2-.74.54.2.73.21,1.46.32,2.2.06.4.55-.16.58-.34.11-.83.06-1.59-.16-2.39Z"></path>
          </g>
          <g class="cls-17">
            <path class="cls-4" d="m72.19,39.15s14.17-16.42,9.12-2.56c-5.05,13.86-6.6,20.57,6.92,3.29,13.53-17.29,11.28-1.03,10.57,12.19.2,3.9,7.65-12.54,15.25-14.89,7.6-2.35,8.2,9.36,7.28,20.2-.92,10.84,6.57-14.5,8.74-14.49,2.17.01,1.37,13.21-.84,23.39-2.22,10.18-9.29,9.09-8.8-2.62-7.41,7.99-23.03,9.65-22.09-7.04-4.83,12.12-23.56,13.31-21.06-2.93-9.35,13.63-18.42,4.26-5.1-14.54Z"></path>
          </g>
        </g>
      </g>
      <text class="cls-16" transform="translate(3.15 168.08)">
        <tspan x="0" y="0">Amazing Caps</tspan>
      </text>
    </g>
  </g>
</svg>
